Command: "C:\Users\LENOVO\AppData\Local\Microsoft\WinGet\Packages\Gyan.FFmpeg_Microsoft.Winget.Source_8wekyb3d8bbwe\ffmpeg-8.1.1-full_build\bin\ffmpeg.exe" -y -i "D:\audiovibe-audioconverter-main\audiovibe-audioconverter-main/uploads/task_38169e0fb72e1821/input.mp3" -progress "D:\audiovibe-audioconverter-main\audiovibe-audioconverter-main/uploads/task_38169e0fb72e1821/progress.txt" -ab "128k" -ac "1" -ar "22050" -codec:a libmp3lame "D:\audiovibe-audioconverter-main\audiovibe-audioconverter-main/uploads/task_38169e0fb72e1821/converted.mp3"

ffmpeg version 8.1.1-full_build-www.gyan.dev Copyright (c) 2000-2026 the FFmpeg developers
  built with gcc 15.2.0 (Rev13, Built by MSYS2 project)
  configuration: --enable-gpl --enable-version3 --enable-static --disable-w32threads --disable-autodetect --enable-cairo --enable-fontconfig --enable-iconv --enable-gnutls --enable-lcms2 --enable-libxml2 --enable-gmp --enable-bzlib --enable-lzma --enable-libsnappy --enable-zlib --enable-librist --enable-libsrt --enable-libssh --enable-libzmq --enable-avisynth --enable-libbluray --enable-libcaca --enable-libdvdnav --enable-libdvdread --enable-sdl2 --enable-libaribb24 --enable-libaribcaption --enable-libdav1d --enable-libdavs2 --enable-libopenjpeg --enable-libquirc --enable-libuavs3d --enable-libxevd --enable-libzvbi --enable-liboapv --enable-libqrencode --enable-librav1e --enable-libsvtav1 --enable-libvvenc --enable-libwebp --enable-libx264 --enable-libx265 --enable-libxavs2 --enable-libxeve --enable-libxvid --enable-libaom --enable-libjxl --enable-libsvtjpegxs --enable-libvpx --enable-mediafoundation --enable-libass --enable-frei0r --enable-libfreetype --enable-libfribidi --enable-libharfbuzz --enable-liblensfun --enable-libvidstab --enable-libvmaf --enable-libzimg --enable-amf --enable-cuda-llvm --enable-cuvid --enable-dxva2 --enable-d3d11va --enable-d3d12va --enable-ffnvcodec --enable-libvpl --enable-nvdec --enable-nvenc --enable-vaapi --enable-libshaderc --enable-vulkan --enable-libplacebo --enable-opencl --enable-libcdio --enable-openal --enable-libgme --enable-libmodplug --enable-libopenmpt --enable-libopencore-amrwb --enable-libmp3lame --enable-libshine --enable-libtheora --enable-libtwolame --enable-libvo-amrwbenc --enable-libcodec2 --enable-libilbc --enable-libgsm --enable-liblc3 --enable-libopencore-amrnb --enable-libopus --enable-libspeex --enable-libvorbis --enable-ladspa --enable-libbs2b --enable-libflite --enable-libmysofa --enable-librubberband --enable-libsoxr --enable-chromaprint --enable-whisper
  libavutil      60. 26.101 / 60. 26.101
  libavcodec     62. 28.101 / 62. 28.101
  libavformat    62. 12.101 / 62. 12.101
  libavdevice    62.  3.101 / 62.  3.101
  libavfilter    11. 14.101 / 11. 14.101
  libswscale      9.  5.101 /  9.  5.101
  libswresample   6.  3.101 /  6.  3.101
Input #0, mov,mp4,m4a,3gp,3g2,mj2, from 'D:\audiovibe-audioconverter-main\audiovibe-audioconverter-main/uploads/task_38169e0fb72e1821/input.mp3':
  Metadata:
    major_brand     : dash
    minor_version   : 0
    compatible_brands: iso6mp41
    creation_time   : 2024-09-28T13:04:28.000000Z
    encoder         : Google
  Duration: 00:03:10.29, start: 0.000000, bitrate: 129 kb/s
  Stream #0:0[0x1](und): Audio: aac (LC) (mp4a / 0x6134706D), 44100 Hz, stereo, fltp, 128 kb/s (default)
    Metadata:
      creation_time   : 2024-09-28T13:04:28.000000Z
      handler_name    : ISO Media file produced by Google Inc.
Stream mapping:
  Stream #0:0 -> #0:0 (aac (native) -> mp3 (libmp3lame))
Press [q] to stop, [?] for help
Output #0, mp3, to 'D:\audiovibe-audioconverter-main\audiovibe-audioconverter-main/uploads/task_38169e0fb72e1821/converted.mp3':
  Metadata:
    major_brand     : dash
    minor_version   : 0
    compatible_brands: iso6mp41
    TSSE            : Lavf62.12.101
  Stream #0:0(und): Audio: mp3, 22050 Hz, mono, fltp, 128 kb/s (default)
    Metadata:
      encoder         : Lavc62.28.101 libmp3lame
      creation_time   : 2024-09-28T13:04:28.000000Z
      handler_name    : ISO Media file produced by Google Inc.
size=    2560KiB time=00:02:54.73 bitrate= 120.0kbits/s speed= 341x elapsed=0:00:00.51    [out#0/mp3 @ 0000019b5cb62e00] video:0KiB audio:2974KiB subtitle:0KiB other streams:0KiB global headers:0KiB muxing overhead: 0.018223%
size=    2975KiB time=00:03:10.28 bitrate= 128.1kbits/s speed= 340x elapsed=0:00:00.56    
